<svg width="36" height="37" viewBox="0 0 36 37" fill="none" xmlns="http://www.w3.org/2000/svg">
<g filter="url(#filter0_d)">
<path d="M18.0833 9.16666C14.8333 9.16666 12.25 11.75 12.25 15C12.25 18.25 14.8333 20.8333 18.0833 20.8333C21.3333 20.8333 23.9167 18.25 23.9167 15C23.9167 11.75 21.3333 9.16666 18.0833 9.16666ZM18.0833 19.1667C15.75 19.1667 13.9167 17.3333 13.9167 15C13.9167 12.6667 15.75 10.8333 18.0833 10.8333C20.4167 10.8333 22.25 12.6667 22.25 15C22.25 17.3333 20.4167 19.1667 18.0833 19.1667Z" fill="white"/>
<path d="M30.3334 12.25L28.0001 11.5L27.5001 10.25L28.6667 8.08332C28.9167 7.58332 28.8334 6.91666 28.4167 6.49999L26.4167 4.49999C26.0001 4.08332 25.3334 3.99999 24.8334 4.24999L22.6667 5.41666L21.4167 4.91666L20.6667 2.58332C20.5001 2.08332 20.0001 1.66666 19.4167 1.66666H16.5834C16.0001 1.66666 15.5001 2.08332 15.4167 2.66666L14.6667 4.99999C14.1667 5.08332 13.7501 5.24999 13.3334 5.49999L11.1667 4.33332C10.6667 4.08332 10.0001 4.16666 9.58341 4.58332L7.58341 6.58332C7.16675 6.99999 7.08341 7.66666 7.33341 8.16666L8.41675 10.25C8.25008 10.6667 8.08341 11.1667 7.91675 11.5833L5.58341 12.3333C5.08341 12.5 4.66675 13 4.66675 13.5833V16.4167C4.66675 17 5.08341 17.5 5.66675 17.6667L8.00008 18.4167L8.50008 19.6667L7.33341 21.8333C7.08341 22.3333 7.16675 23 7.58341 23.4167L9.58341 25.4167C10.0001 25.8333 10.6667 25.9167 11.1667 25.6667L13.3334 24.5L14.5834 25L15.3334 27.4167C15.5001 27.9167 16.0001 28.3333 16.5834 28.3333H19.4167C20.0001 28.3333 20.5001 27.9167 20.6667 27.4167L21.4167 25L22.6667 24.5L24.8334 25.6667C25.3334 25.9167 26.0001 25.8333 26.4167 25.4167L28.4167 23.4167C28.8334 23 28.9167 22.3333 28.6667 21.8333L27.5001 19.6667L28.0001 18.4167L30.4167 17.6667C30.9167 17.5 31.3334 17 31.3334 16.4167V13.5833C31.3334 13 30.9167 12.4167 30.3334 12.25ZM29.6667 16.1667L26.6667 17.0833L26.5834 17.5L25.8334 19.25L25.5834 19.6667L27.0834 22.4167L25.4167 24.0833L22.6667 22.5833L22.2501 22.8333C21.6667 23.1667 21.0834 23.4167 20.5001 23.5833L20.0834 23.6667L19.1667 26.6667H16.8334L15.9167 23.6667L15.5001 23.5833L13.7501 22.8333L13.3334 22.5833L10.5834 24.0833L8.91675 22.4167L10.4167 19.6667L10.1667 19.25C9.83342 18.6667 9.58341 18.0833 9.41675 17.5L9.33341 17.0833L6.33341 16.1667V13.8333L9.16675 13L9.33341 12.5833C9.50008 11.9167 9.75008 11.3333 10.0834 10.75L10.3334 10.3333L8.91675 7.58332L10.5834 5.91666L13.2501 7.41666L13.6667 7.16666C14.2501 6.83332 14.8334 6.58332 15.5001 6.41666L15.9167 6.24999L16.8334 3.33332H19.1667L20.0834 6.24999L20.5001 6.41666C21.0834 6.58332 21.6667 6.83332 22.2501 7.16666L22.6667 7.41666L25.4167 5.91666L27.0834 7.58332L25.5834 10.3333L25.8334 10.75C26.1667 11.3333 26.4167 11.9167 26.5834 12.5L26.6667 12.9167L29.6667 13.8333V16.1667Z" fill="white"/>
</g>
<defs>
<filter id="filter0_d" x="-1" y="0" width="38" height="38" filterUnits="userSpaceOnUse" color-interpolation-filters="sRGB">
<feFlood flood-opacity="0" result="BackgroundImageFix"/>
<feColorMatrix in="SourceAlpha" type="matrix" values="0 0 0 0 0 0 0 0 0 0 0 0 0 0 0 0 0 0 127 0"/>
<feOffset dy="4"/>
<feGaussianBlur stdDeviation="2"/>
<feColorMatrix type="matrix" values="0 0 0 0 0 0 0 0 0 0 0 0 0 0 0 0 0 0 0.25 0"/>
<feBlend mode="normal" in2="BackgroundImageFix" result="effect1_dropShadow"/>
<feBlend mode="normal" in="SourceGraphic" in2="effect1_dropShadow" result="shape"/>
</filter>
</defs>
</svg>
