<svg
  width="10"
  height="9"
  viewBox="0 0 10 9"
  fill="none"
  xmlns="http://www.w3.org/2000/svg"
>
<path
    d="M3.33359 4.99923C3.7031 4.99914 4.06216 5.12186 4.35431 5.3481C4.64646 5.57434 4.85513 5.89126 4.94751 6.24904H9.58263C9.68673 6.24885 9.78714 6.28764 9.86407 6.35778C9.941 6.42792 9.98889 6.52432 9.99829 6.628C10.0077 6.73168 9.97795 6.83512 9.91489 6.91796C9.85184 7.0008 9.76006 7.05703 9.65762 7.07558L9.58263 7.08224L4.94751 7.08308C4.85544 7.44116 4.6469 7.75845 4.35472 7.98501C4.06254 8.21157 3.70332 8.33453 3.33359 8.33453C2.96386 8.33453 2.60463 8.21157 2.31245 7.98501C2.02027 7.75845 1.81174 7.44116 1.71967 7.08308L0.417371 7.08224C0.313265 7.08244 0.21286 7.04364 0.135928 6.9735C0.0589956 6.90337 0.0111114 6.80697 0.00170493 6.70329C-0.00770152 6.59961 0.0220514 6.49616 0.0851046 6.41332C0.148158 6.33048 0.239942 6.27425 0.342382 6.25571L0.417371 6.24904H1.71967C1.81205 5.89126 2.02072 5.57434 2.31287 5.3481C2.60502 5.12186 2.96408 4.99914 3.33359 4.99923ZM6.66641 5.38597e-08C7.03592 -9.38587e-05 7.39498 0.122628 7.68713 0.348868C7.97928 0.575108 8.18795 0.892033 8.28033 1.24981H9.58263C9.68673 1.24962 9.78714 1.28841 9.86407 1.35855C9.941 1.42869 9.98889 1.52509 9.99829 1.62877C10.0077 1.73245 9.97795 1.83589 9.91489 1.91873C9.85184 2.00157 9.76006 2.0578 9.65762 2.07635L9.58263 2.08301L8.28033 2.08385C8.18826 2.44193 7.97972 2.75922 7.68754 2.98578C7.39537 3.21234 7.03614 3.3353 6.66641 3.3353C6.29668 3.3353 5.93746 3.21234 5.64528 2.98578C5.3531 2.75922 5.14456 2.44193 5.05249 2.08385L0.417371 2.08301C0.313265 2.0832 0.21286 2.04441 0.135928 1.97427C0.0589956 1.90413 0.0111114 1.80773 0.00170493 1.70405C-0.00770152 1.60037 0.0220514 1.49693 0.0851046 1.41409C0.148158 1.33125 0.239942 1.27502 0.342382 1.25647L0.417371 1.24981H5.05249C5.14487 0.892033 5.35354 0.575108 5.64569 0.348868C5.93784 0.122628 6.2969 -9.38587e-05 6.66641 5.38597e-08V5.38597e-08Z"
    fill="#02000F"
  />
</svg>
